<svg xmlns="http://www.w3.org/2000/svg" width="390" height="844" viewBox="0 0 390 844" role="img"><title>任务首页与筛选 / Android</title><style>text{font-family:"Microsoft YaHei","Segoe UI",sans-serif}</style><rect x="0" y="0" width="390" height="844" rx="0" fill="#F3F6FB" stroke="#7B8A98"/><rect x="0" y="0" width="390" height="24" rx="0" fill="#FFFFFF" stroke="#7B8A98"/><text x="20" y="17" font-size="12" fill="#17212B" font-weight="400">09:41</text><text x="298" y="17" font-size="11" fill="#17212B" font-weight="400">5G   100%</text><text x="16" y="62" font-size="20" fill="#17212B" font-weight="600">CA-03 任务首页与筛选</text><text x="16" y="92" font-size="13" fill="#52616E" font-weight="400">任务首页与筛选 · 当前示例仅供布局验收</text><text x="16" y="152" font-size="13" fill="#52616E" font-weight="400">连接状态</text><rect x="16" y="162" width="358" height="48" rx="8" fill="#E6F0FF" stroke="#7B8A98"/><text x="28" y="186" font-size="14" fill="#17212B" font-weight="400">已连接 · 最近同步 12秒前</text><text x="16" y="240" font-size="13" fill="#52616E" font-weight="400">搜索</text><rect x="16" y="250" width="358" height="48" rx="8" fill="#FFFFFF" stroke="#7B8A98"/><text x="28" y="274" font-size="14" fill="#17212B" font-weight="400">同步协调器</text><text x="16" y="328" font-size="13" fill="#52616E" font-weight="400">状态筛选</text><rect x="16" y="338" width="358" height="48" rx="8" fill="#FFFFFF" stroke="#7B8A98"/><text x="28" y="362" font-size="14" fill="#17212B" font-weight="400">全部  ▾</text><text x="16" y="416" font-size="13" fill="#52616E" font-weight="400">任务</text><rect x="16" y="426" width="358" height="48" rx="8" fill="#E6F0FF" stroke="#7B8A98"/><text x="28" y="450" font-size="14" fill="#17212B" font-weight="400">同步协调器 · 进行中 · 2/5步骤</text><text x="16" y="504" font-size="13" fill="#52616E" font-weight="400">最近变化</text><rect x="16" y="514" width="358" height="48" rx="8" fill="#E6F0FF" stroke="#7B8A98"/><text x="28" y="538" font-size="14" fill="#17212B" font-weight="400">部署检查 · 已完成 · 3分钟前</text><rect x="14" y="702" width="362" height="72" rx="0" fill="#F3F6FB" stroke="#F3F6FB"/><rect x="16" y="712" width="173" height="44" rx="8" fill="#2457A6" stroke="#7B8A98"/><text x="32" y="740" font-size="14" fill="#FFFFFF" font-weight="400">查看任务</text><rect x="201" y="712" width="173" height="44" rx="8" fill="#FFFFFF" stroke="#7B8A98"/><text x="217" y="740" font-size="14" fill="#17212B" font-weight="400">清除筛选</text><rect x="0" y="772" width="390" height="56" rx="0" fill="#FFFFFF" stroke="#7B8A98"/><text x="12.0" y="806" font-size="13" fill="#2457A6" font-weight="400">任务</text><text x="207.0" y="806" font-size="13" fill="#52616E" font-weight="400">设置</text><rect x="145" y="835" width="100" height="4" rx="2" fill="#17212B" stroke="#17212B"/></svg>